<svg xmlns="http://www.w3.org/2000/svg" xmlns:xlink="http://www.w3.org/1999/xlink" width="355.417" height="86" viewBox="0 0 355.417 86"><defs><style>.a{fill:#fff;}.b{fill:#404447;}.c{fill:#7d1718;}.d{fill:url(#a);}</style><linearGradient id="a" y1="0.501" x2="1.096" y2="0.5" gradientUnits="objectBoundingBox"><stop offset="0" stop-color="#d9dcdd"/><stop offset="0.034" stop-color="#ced0d2"/><stop offset="0.191" stop-color="#acacac"/><stop offset="0.357" stop-color="#979797"/><stop offset="0.536" stop-color="#8e8e8e"/><stop offset="0.736" stop-color="#828282"/><stop offset="1" stop-color="#404447"/></linearGradient></defs><g transform="translate(-1303 -2535)"><rect class="a" width="355" height="86" transform="translate(1303 2535)"/><g transform="translate(1303 2535.28)"><path class="b" d="M528.874,97.63V96.7H515.9v4.511h13.021c.047-.465.047-.93.047-1.4C528.921,99.444,528.921,98.7,528.874,97.63Z" transform="translate(-275.994 -51.732)"/><path class="b" d="M498.214,62.3a16.464,16.464,0,0,0-6.929-1.4,19.643,19.643,0,0,0-6.882,1.209,16.6,16.6,0,0,0-5.627,3.581,15.3,15.3,0,0,0-3.72,5.534,18.239,18.239,0,0,0-1.256,6.836,19.259,19.259,0,0,0,.419,4.046h5.673a14.189,14.189,0,0,1-.512-4.046,12.177,12.177,0,0,1,3.348-8.882,12.583,12.583,0,0,1,13.346-2.465,9.97,9.97,0,0,1,3.72,2.883l3.906-2.93A15.138,15.138,0,0,0,498.214,62.3Z" transform="translate(-253.472 -32.58)"/><path class="c" d="M502.518,111.8a6.255,6.255,0,0,1-1.907,2.372,11.14,11.14,0,0,1-7.161,2.139,11.807,11.807,0,0,1-8.742-3.441,10.213,10.213,0,0,1-.93-1.07H477.5a15.329,15.329,0,0,0,3.116,4.511,15.556,15.556,0,0,0,5.534,3.581,20.3,20.3,0,0,0,7.161,1.163c4.79,0,8.51-1.256,11.161-3.813a12.47,12.47,0,0,0,3.255-5.441Z" transform="translate(-255.451 -59.81)"/><rect class="c" width="4.836" height="8.417" transform="translate(258.367 51.99)"/><rect class="b" width="4.836" height="22.368" transform="translate(258.367 27.111)"/><path class="b" d="M600.168,92.722a11.635,11.635,0,0,0-2.558-3.674,11.148,11.148,0,0,0-3.767-2.511,12.447,12.447,0,0,0-8.975,0,12.421,12.421,0,0,0-3.767,2.418,10.788,10.788,0,0,0-3.3,6.371h5.208a6.92,6.92,0,0,1,1.721-3.255,6.307,6.307,0,0,1,9.3,0,6.921,6.921,0,0,1,1.721,3.255h5.162A12.79,12.79,0,0,0,600.168,92.722Z" transform="translate(-309.109 -45.847)"/><path class="c" d="M595.717,111.8a7.132,7.132,0,0,1-1.628,2.883,6.17,6.17,0,0,1-4.65,2.046,6.243,6.243,0,0,1-4.65-2.046,6.631,6.631,0,0,1-1.627-2.883H578a13.483,13.483,0,0,0,.651,2.232,12.38,12.38,0,0,0,2.558,3.72,12.713,12.713,0,0,0,3.767,2.511,12.2,12.2,0,0,0,8.882,0,11.992,11.992,0,0,0,3.86-2.511,10.617,10.617,0,0,0,2.511-3.627,11.294,11.294,0,0,0,.651-2.232h-5.162Z" transform="translate(-309.216 -59.81)"/><path class="b" d="M657.734,74.111a9.209,9.209,0,0,0-11.3-2,6.306,6.306,0,0,0-2.7,3.116V58.3H638.9V80.668h4.79a6.277,6.277,0,0,1,1.441-3.488,5.322,5.322,0,0,1,4.278-1.814,5.407,5.407,0,0,1,4.325,1.907,7.034,7.034,0,0,1,1.441,3.441h5.115A11.871,11.871,0,0,0,657.734,74.111Z" transform="translate(-341.796 -31.189)"/><path class="c" d="M654.922,111.746a6.382,6.382,0,0,1-1.349,3.116,5.258,5.258,0,0,1-4.278,1.814,5.334,5.334,0,0,1-4.325-2,7.124,7.124,0,0,1-1.442-2.976H638.6v8.417h4.836v-2.7a8.853,8.853,0,0,0,3.023,2.744,8.387,8.387,0,0,0,3.953.884,8.765,8.765,0,0,0,7.068-3.069,11.41,11.41,0,0,0,2.465-6.185h-5.022Z" transform="translate(-341.636 -59.757)"/><path class="b" d="M709.455,86.4v3.488a6.306,6.306,0,0,0-2.7-3.116,8.3,8.3,0,0,0-4.418-1.07,8.544,8.544,0,0,0-6.882,3.116,11.527,11.527,0,0,0-2.557,6.557h5.115a6.631,6.631,0,0,1,1.442-3.441,5.407,5.407,0,0,1,4.325-1.907,5.321,5.321,0,0,1,4.278,1.814,7.023,7.023,0,0,1,1.442,3.488h4.836V86.4Z" transform="translate(-370.685 -45.847)"/><path class="c" d="M709.415,111.8a7.056,7.056,0,0,1-1.395,2.976,5.381,5.381,0,0,1-4.278,2,5.258,5.258,0,0,1-4.278-1.814,6.381,6.381,0,0,1-1.349-3.116H693a11.267,11.267,0,0,0,2.465,6.185,8.765,8.765,0,0,0,7.068,3.069,8.259,8.259,0,0,0,3.953-.884,8.407,8.407,0,0,0,3.023-2.744v2.744h4.836V111.8h-4.929Z" transform="translate(-370.738 -59.81)"/><path class="b" d="M24.412,32.44l-.837,3.906C22.552,41.183,21.761,45,21.2,47.739s-.93,4.79-1.116,6a11.619,11.619,0,0,0-.14,2.418,2.858,2.858,0,0,0,.465,1.535,2.037,2.037,0,0,0,1.07.791,5.777,5.777,0,0,0,1.721.279l4.092.186-.512,2.511c-.93-.047-2-.047-3.209-.093s-2.372-.047-3.534-.093-2.232-.047-3.209-.093c-.977,0-1.767-.047-2.279-.047-.837,0-2,.047-3.488.093s-2.93.093-4.371.093l-5.394.14.512-2.511,4-.186a10.462,10.462,0,0,0,1.86-.279,3.928,3.928,0,0,0,1.535-.744,4.967,4.967,0,0,0,1.209-1.488,11.288,11.288,0,0,0,.837-2.511c.326-1.4.837-3.534,1.488-6.371.651-2.883,1.488-6.557,2.418-11.021l3.069-14.509c.279-1.4.6-2.837.884-4.418.279-1.535.558-2.976.791-4.278s.419-2.465.558-3.395.233-1.488.233-1.674a15.685,15.685,0,0,0,.047-2.511,3.142,3.142,0,0,0-.419-1.488A1.7,1.7,0,0,0,19.3,3.33,8.1,8.1,0,0,0,17.576,3.1L14.46,2.911,14.972.4c1.023.047,2.139.047,3.3.093S20.6.54,21.715.586c1.209.093,2.232.14,3.162.14S26.5.772,27.016.772c1.209,0,2.279,0,3.3-.047,1.023,0,2-.047,2.93-.093.93,0,1.86-.047,2.79-.093S37.9.493,38.92.447l-.558,2.511L35.2,3.144a9.619,9.619,0,0,0-1.86.233,2.816,2.816,0,0,0-1.3.744,4.651,4.651,0,0,0-1.023,1.488,15.793,15.793,0,0,0-.977,2.511c-.046.14-.233.7-.465,1.628s-.512,2.093-.837,3.395c-.326,1.349-.7,2.79-1.023,4.325-.372,1.535-.7,3.023-.977,4.418l-1.488,7.068H60.5l1.488-7.068c.279-1.4.6-2.837.884-4.418.279-1.535.558-2.976.791-4.325s.419-2.465.6-3.395A10.779,10.779,0,0,0,64.5,8.119a15.687,15.687,0,0,0,.047-2.511,3.142,3.142,0,0,0-.419-1.488A1.7,1.7,0,0,0,63.1,3.376a7.681,7.681,0,0,0-1.721-.233l-3.162-.186L58.73.447c.977.047,1.907.047,2.79.093.93.047,1.814.047,2.744.093s1.907.047,2.93.093c1.023,0,2.139.047,3.348.047.465,0,1.209,0,2.139-.047.93,0,1.953-.047,3.069-.093S78.029.586,79.238.54,81.563.493,82.586.447l-.512,2.511-3.255.186a9.619,9.619,0,0,0-1.86.233,2.816,2.816,0,0,0-1.3.744,4.651,4.651,0,0,0-1.023,1.488,15.793,15.793,0,0,0-.977,2.511c-.047.14-.233.7-.465,1.628s-.512,2.093-.837,3.395c-.326,1.349-.7,2.79-1.023,4.325-.372,1.535-.7,3.023-.977,4.418L67.287,36.393c-1.023,4.836-1.814,8.649-2.372,11.393q-.837,4.185-1.116,6a11.62,11.62,0,0,0-.14,2.418,2.861,2.861,0,0,0,.512,1.535,2.153,2.153,0,0,0,1.116.791,6.115,6.115,0,0,0,1.767.279l3.906.186L70.449,61.5c-2.511-.047-4.883-.14-7.161-.186s-4.278-.093-5.906-.093c-.512,0-1.256,0-2.279.047-1.023,0-2.093.047-3.255.093s-2.372.047-3.581.093-2.279.047-3.209.093l.512-2.511,4.185-.186a9.315,9.315,0,0,0,1.814-.279,3.671,3.671,0,0,0,1.442-.791A5.417,5.417,0,0,0,54.127,56.3a12.811,12.811,0,0,0,.884-2.511c.372-1.4.837-3.534,1.488-6.371q.977-4.325,2.372-11.021l.837-3.906h-35.3Z" transform="translate(-0.695 -0.214)"/><path class="c" d="M220.674,9.042a9.175,9.175,0,0,0-2.79-4.557,14.719,14.719,0,0,0-5.766-3.069A30.275,30.275,0,0,0,203.283.3c-1.721,0-3.255,0-4.7.047s-2.837.093-4.185.14-2.744.093-4.139.14-2.883.047-4.511.047c-.512,0-1.209,0-2-.047-.837-.047-1.674-.047-2.6-.093C180.264.486,179.38.486,178.5.44s-1.581-.047-2.186-.047L175.8,2.9l3.116.186a8.1,8.1,0,0,1,1.721.233,1.744,1.744,0,0,1,.977.744,3.17,3.17,0,0,1,.372,1.488,24.3,24.3,0,0,1-.047,2.511c0,.186-.093.744-.233,1.674s-.326,2.046-.558,3.395c-.232,1.3-.512,2.744-.791,4.278s-.6,3.023-.884,4.418l-2.79,12.788-.372,1.721c-.977,4.464-1.767,8.138-2.465,11.021s-1.209,4.976-1.581,6.371a8.219,8.219,0,0,1-1.86,3.813,4.332,4.332,0,0,1-2.883,1.023l-4.464.372-.558,2.511c.791,0,1.814,0,3.023-.047s2.418-.046,3.581-.093c1.209-.046,2.325-.046,3.348-.093s1.814-.046,2.279-.046c.837,0,1.907,0,3.209.046s2.651.047,4,.093,2.651.047,3.906.093,2.232.047,2.93.047l.558-2.511-4.883-.186a6.192,6.192,0,0,1-1.814-.279,2.371,2.371,0,0,1-1.116-.744,2.689,2.689,0,0,1-.465-1.488,10.241,10.241,0,0,1,.186-2.511q.14-.907.419-2.372c.186-.977.419-2.232.7-3.674s.651-3.162,1.07-5.115.884-4.185,1.442-6.743l1.814-.047,6.464-.233.047.046a57.642,57.642,0,0,0,9.207-1.535h0a39.2,39.2,0,0,0,5.952-2.6A25.865,25.865,0,0,0,213.7,27.55a23.649,23.649,0,0,0,4.232-5.441,23.808,23.808,0,0,0,2.7-7.3A12.721,12.721,0,0,0,220.674,9.042Zm-9.9,7.533q-1.6,7.6-6,11.579-4.394,3.906-11.858,4.046h-1.488c-.6,0-1.209,0-1.907-.046-.7,0-1.349-.047-2-.047-.651-.046-1.256-.046-1.767-.093l2.139-10.184c.279-1.349.6-2.883.977-4.557s.744-3.395,1.163-5.069q.558-2.511,1.116-4.743c.372-1.488.651-2.7.884-3.627h1.07a8.233,8.233,0,0,0,1.07-.047c.6-.047,1.163-.047,1.814-.047h1.581a23.13,23.13,0,0,1,6.231.744,11.072,11.072,0,0,1,4.557,2.279,7.914,7.914,0,0,1,2.465,4A12.259,12.259,0,0,1,210.769,16.576Z" transform="translate(-86.934 -0.16)"/><path class="b" d="M327.136,0a76.5,76.5,0,0,1,10,.6,46.838,46.838,0,0,1,8.882,2,27.986,27.986,0,0,1,7.254,3.674,18.269,18.269,0,0,1,5.115,5.58,19.832,19.832,0,0,1,2.465,7.766,32.2,32.2,0,0,1-.7,10.277,41.172,41.172,0,0,1-5.487,13.858,33.63,33.63,0,0,1-9.394,9.765,40.47,40.47,0,0,1-12.835,5.813,63.556,63.556,0,0,1-15.95,1.907c-1.442,0-2.93,0-4.464-.047s-3.023-.047-4.464-.093-2.79-.047-4-.093-2.186-.047-2.93-.047-1.767,0-3.116.047-2.7.047-4.046.093l-5.069.139.512-2.511,4.232-.279a9.5,9.5,0,0,0,1.721-.279,3.67,3.67,0,0,0,1.442-.791,5.417,5.417,0,0,0,1.116-1.488,9.446,9.446,0,0,0,.791-2.372c.326-1.4.837-3.534,1.488-6.371.651-2.883,1.488-6.557,2.418-11.021l3.069-14.509q.418-2.093.837-4.325c.279-1.488.512-2.883.744-4.185s.419-2.418.558-3.395.233-1.628.279-2a10.4,10.4,0,0,0,.047-2.372,2.743,2.743,0,0,0-.512-1.4,1.9,1.9,0,0,0-.977-.7,6.23,6.23,0,0,0-1.442-.233l-4.7-.279.512-2.511c.744.047,1.581.047,2.6.093.977.047,2.046.047,3.116.093s2.139.047,3.209.093c1.07,0,2.093.047,3.023.047,2.279-.14,4.65-.279,7.161-.372C322.254.047,324.718,0,327.136,0ZM310.628,36.132c-.651,2.976-1.163,5.441-1.535,7.44-.419,2-.744,3.674-1.023,5.162-.279,1.442-.512,2.744-.744,3.86-.186,1.116-.419,2.325-.651,3.581a19.65,19.65,0,0,0,2.418.419c.976.14,2,.233,3.023.326s2.046.186,3.069.233,1.86.093,2.6.093a39.368,39.368,0,0,0,11.347-1.628,30.336,30.336,0,0,0,9.719-4.883,30.844,30.844,0,0,0,7.487-8.324A36.816,36.816,0,0,0,350.9,30.6a29.361,29.361,0,0,0,.418-12.277A15.694,15.694,0,0,0,346.807,10a21.026,21.026,0,0,0-8.928-4.743,50.691,50.691,0,0,0-12.835-1.488H323.6c-.6,0-1.256,0-1.953.047-.7,0-1.4.047-2.093.093s-1.3.047-1.814.093c-.233.977-.512,2.093-.791,3.255s-.558,2.465-.884,3.86-.651,2.976-1.023,4.743q-.558,2.581-1.256,5.859Z" transform="translate(-154.287 0)"/><rect class="d" width="355.417" height="15.95" transform="translate(0 69.707)"/><path class="c" d="M310.224,93.046c-1.721,1.209-3.395,2.372-5.069,3.488-25.483,16.648-61.1,10.184-75.566-17.531a39.046,39.046,0,0,1-3.3-8.045l-1.581-.6c-.093-.326-.233-.7-.326-1.023h-2.372l-2.372-.93.418.93H218.8s13.021,39.294,43.666,43.387c.233.047.512.047.744.093h0C292.6,116.251,317.571,99,330.592,73.655,331.615,71.562,319.571,86.3,310.224,93.046Z" transform="translate(-117.053 -36.592)"/></g></g></svg>