<svg xmlns="http://www.w3.org/2000/svg" width="355" height="86" viewBox="0 0 355 86"><defs><style>.a{fill:#fff;}.b{fill:#1a1f1f;}.c{fill:#fe1212;}.d{fill:#516263;}</style></defs><g transform="translate(-1303 -2638)"><rect class="a" width="355" height="86" transform="translate(1303 2638)"/><g transform="translate(1288.518 2632.097)"><rect class="b" width="1.526" height="76.245" transform="translate(185.997 9.903)"/><g transform="translate(199.4 16.435)"><path class="b" d="M312.1,36.091V27.076l-2.954,5.865H307.1l-2.976-5.865v9.015h-3.02V20.624h2.976l4.041,8.363,4.018-8.363h2.976V36.091Z" transform="translate(-301.108 -20.494)"/><path class="b" d="M337.224,36.091l-.913-2.737h-5.495l-.934,2.737h-3.15l5.626-15.467h2.368l5.647,15.467Zm-3.606-10.9-1.955,5.626h3.844Z" transform="translate(-310.81 -20.494)"/><path class="b" d="M359.526,36.091l-.913-2.737h-5.5l-.934,2.737h-3.15l5.626-15.467h2.367l5.648,15.467Zm-3.606-10.9-1.955,5.626h3.844Z" transform="translate(-319.254 -20.494)"/><path class="b" d="M377.473,36.142a7.266,7.266,0,0,1-5.648-2.042l1.955-1.955a5.06,5.06,0,0,0,3.736,1.3c1.781,0,2.737-.674,2.737-1.911a1.723,1.723,0,0,0-.478-1.3,2.3,2.3,0,0,0-1.368-.543l-1.868-.261a5.241,5.241,0,0,1-3-1.281,4.086,4.086,0,0,1-1.108-3.041c0-2.758,2.042-4.692,5.387-4.692a6.625,6.625,0,0,1,5,1.8l-1.912,1.89a4.3,4.3,0,0,0-3.171-1.064c-1.608,0-2.39.891-2.39,1.955a1.493,1.493,0,0,0,.457,1.108,2.651,2.651,0,0,0,1.434.608l1.824.26a5.118,5.118,0,0,1,2.955,1.195,4.331,4.331,0,0,1,1.194,3.28C383.207,34.447,380.709,36.142,377.473,36.142Z" transform="translate(-327.883 -20.415)"/><path class="b" d="M399.928,23.318V36.091h-3.019V23.318h-4.04V20.624h11.1v2.694Z" transform="translate(-335.851 -20.494)"/><path class="b" d="M422.892,36.091l-3.019-6.17H417.7v6.17h-3.019V20.624h6.06a4.676,4.676,0,0,1,5.019,4.736,4.165,4.165,0,0,1-2.824,4.062l3.454,6.669Zm-2.346-12.773H417.7V27.4h2.845a2.047,2.047,0,1,0,0-4.084Z" transform="translate(-344.11 -20.494)"/><path class="b" d="M437.544,36.091V20.624h3.019V36.091Z" transform="translate(-352.766 -20.494)"/><path class="b" d="M453.057,36.142a5.666,5.666,0,0,1-4.171-1.7,4.466,4.466,0,0,1-1.259-2.324,21.073,21.073,0,0,1-.261-3.844,21.08,21.08,0,0,1,.261-3.845,4.387,4.387,0,0,1,1.259-2.324,5.668,5.668,0,0,1,4.171-1.694,5.449,5.449,0,0,1,5.691,4.888h-3.063a2.549,2.549,0,0,0-2.607-2.195,2.387,2.387,0,0,0-1.933.8c-.63.674-.761,1.369-.761,4.366s.13,3.693.761,4.366a2.387,2.387,0,0,0,1.933.8,2.549,2.549,0,0,0,2.607-2.194h3.063A5.464,5.464,0,0,1,453.057,36.142Z" transform="translate(-356.485 -20.415)"/><path class="b" d="M478.132,36.091V29.617H472.9v6.474h-3.019V20.624H472.9v6.321h5.235V20.624h3.019V36.091Z" transform="translate(-365.008 -20.494)"/><path class="b" d="M499.03,23.318V36.091h-3.019V23.318h-4.04V20.624h11.1v2.694Z" transform="translate(-373.373 -20.494)"/></g><g transform="translate(198.009 41.334)"><path class="b" d="M304.518,76.212a7.263,7.263,0,0,1-5.648-2.042l1.955-1.955a5.064,5.064,0,0,0,3.736,1.3c1.781,0,2.737-.674,2.737-1.911a1.721,1.721,0,0,0-.477-1.3,2.294,2.294,0,0,0-1.368-.543l-1.868-.261a5.245,5.245,0,0,1-3-1.282,4.084,4.084,0,0,1-1.108-3.04c0-2.759,2.042-4.692,5.387-4.692a6.626,6.626,0,0,1,5,1.8l-1.911,1.89a4.3,4.3,0,0,0-3.171-1.064c-1.608,0-2.39.891-2.39,1.955a1.492,1.492,0,0,0,.456,1.107,2.654,2.654,0,0,0,1.434.608l1.824.26a5.122,5.122,0,0,1,2.955,1.195,4.332,4.332,0,0,1,1.194,3.28C310.252,74.518,307.754,76.212,304.518,76.212Z" transform="translate(-298.87 -60.486)"/><path class="b" d="M328.017,76.212a5.668,5.668,0,0,1-4.171-1.694,4.468,4.468,0,0,1-1.26-2.324,21.083,21.083,0,0,1-.261-3.845,21.076,21.076,0,0,1,.261-3.844,4.386,4.386,0,0,1,1.26-2.325,5.668,5.668,0,0,1,4.171-1.694,5.449,5.449,0,0,1,5.691,4.887h-3.063a2.549,2.549,0,0,0-2.607-2.194,2.386,2.386,0,0,0-1.933.8c-.63.674-.761,1.368-.761,4.366s.13,3.693.761,4.366a2.386,2.386,0,0,0,1.933.8,2.549,2.549,0,0,0,2.607-2.194h3.063A5.464,5.464,0,0,1,328.017,76.212Z" transform="translate(-307.751 -60.486)"/><path class="b" d="M354.49,76.161V69.688h-5.234v6.474h-3.02V60.695h3.02v6.321h5.234V60.695h3.02V76.161Z" transform="translate(-316.804 -60.565)"/><path class="b" d="M380.625,74.518a6.007,6.007,0,0,1-8.363,0c-1.564-1.564-1.521-3.5-1.521-6.169s-.043-4.605,1.521-6.169a6.008,6.008,0,0,1,8.363,0c1.564,1.564,1.542,3.5,1.542,6.169S382.189,72.954,380.625,74.518ZM378.388,64a2.509,2.509,0,0,0-1.934-.826A2.556,2.556,0,0,0,374.5,64c-.587.652-.739,1.368-.739,4.344s.152,3.693.739,4.344a2.556,2.556,0,0,0,1.955.826,2.509,2.509,0,0,0,1.934-.826c.586-.651.759-1.368.759-4.344S378.974,64.657,378.388,64Z" transform="translate(-326.082 -60.486)"/><path class="b" d="M404.536,74.518a6.007,6.007,0,0,1-8.363,0c-1.564-1.564-1.52-3.5-1.52-6.169s-.043-4.605,1.52-6.169a6.008,6.008,0,0,1,8.363,0c1.564,1.564,1.542,3.5,1.542,6.169S406.1,72.954,404.536,74.518ZM402.3,64a2.509,2.509,0,0,0-1.933-.826A2.556,2.556,0,0,0,398.41,64c-.587.652-.738,1.368-.738,4.344s.152,3.693.738,4.344a2.556,2.556,0,0,0,1.955.826,2.509,2.509,0,0,0,1.933-.826c.586-.651.76-1.368.76-4.344S402.885,64.657,402.3,64Z" transform="translate(-335.135 -60.486)"/><path class="b" d="M419.4,76.161V60.695h3.02V73.467h7.016v2.694Z" transform="translate(-344.506 -60.565)"/><path class="b" d="M459.452,74.518a6.006,6.006,0,0,1-8.363,0c-1.565-1.564-1.521-3.5-1.521-6.169s-.043-4.605,1.521-6.169a6.008,6.008,0,0,1,8.363,0c1.564,1.564,1.542,3.5,1.542,6.169S461.016,72.954,459.452,74.518ZM457.215,64a2.508,2.508,0,0,0-1.933-.826,2.556,2.556,0,0,0-1.955.826c-.587.652-.738,1.368-.738,4.344s.152,3.693.738,4.344a2.556,2.556,0,0,0,1.955.826,2.508,2.508,0,0,0,1.933-.826c.586-.651.76-1.368.76-4.344S457.8,64.657,457.215,64Z" transform="translate(-355.928 -60.486)"/><path class="b" d="M477.338,63.389v3.8h6.1v2.693h-6.1v6.278h-3.02V60.695h10.188v2.694Z" transform="translate(-365.299 -60.565)"/></g><g transform="translate(199.399 66.233)"><path class="b" d="M312.1,116.232v-9.014l-2.954,5.865H307.1l-2.976-5.865v9.014h-3.02V100.766h2.976l4.041,8.363,4.018-8.363h2.976v15.466Z" transform="translate(-301.107 -100.636)"/><path class="b" d="M338.621,116.232l-.913-2.737h-5.5l-.934,2.737h-3.15l5.626-15.466h2.367l5.648,15.466Zm-3.606-10.9-1.955,5.627H336.9Z" transform="translate(-311.338 -100.636)"/><path class="b" d="M363.7,116.232l-6.126-9.493v9.493h-3.019V100.766h2.694l6.126,9.47v-9.47h3.019v15.466Z" transform="translate(-321.344 -100.636)"/><path class="b" d="M388.574,116.232l-.913-2.737h-5.5l-.934,2.737h-3.15l5.626-15.466h2.367l5.648,15.466Zm-3.606-10.9-1.955,5.627h3.845Z" transform="translate(-330.251 -100.636)"/><path class="b" d="M413.378,114.523a5.8,5.8,0,0,1-4.366,1.76,5.67,5.67,0,0,1-4.171-1.694,4.472,4.472,0,0,1-1.26-2.324,28.45,28.45,0,0,1,0-7.69,4.389,4.389,0,0,1,1.26-2.325,5.668,5.668,0,0,1,4.171-1.694,5.541,5.541,0,0,1,5.822,4.953h-3.041a2.633,2.633,0,0,0-2.781-2.259,2.462,2.462,0,0,0-1.933.825c-.565.716-.738,1.282-.738,4.345,0,3.041.13,3.649.738,4.366a2.387,2.387,0,0,0,1.933.8,2.783,2.783,0,0,0,2.151-.869,3.038,3.038,0,0,0,.695-2.063v-.587h-2.845v-2.52h5.843v2.259C414.855,112.068,414.442,113.394,413.378,114.523Z" transform="translate(-339.807 -100.556)"/><path class="b" d="M427.825,116.232V100.766h10.188v2.694h-7.169v3.628h6.1v2.694h-6.1v3.757h7.169v2.694Z" transform="translate(-349.085 -100.636)"/><path class="b" d="M461.363,116.232v-9.014l-2.953,5.865h-2.042l-2.976-5.865v9.014h-3.019V100.766h2.976l4.041,8.363,4.018-8.363h2.976v15.466Z" transform="translate(-357.622 -100.636)"/><path class="b" d="M480.12,116.232V100.766h10.188v2.694h-7.169v3.628h6.1v2.694h-6.1v3.757h7.169v2.694Z" transform="translate(-368.885 -100.636)"/><path class="b" d="M511.812,116.232l-6.126-9.493v9.493h-3.019V100.766h2.694l6.126,9.47v-9.47h3.019v15.466Z" transform="translate(-377.422 -100.636)"/><path class="b" d="M534.127,103.46v12.772h-3.02V103.46h-4.04v-2.694h11.1v2.694Z" transform="translate(-386.661 -100.636)"/></g><path class="b" d="M72.6,34.619,56.181,57.394,39.765,34.619H32.482V73.193h9.3V53.511l.349.483L50.46,65.324l5.794,7.869,5.7-7.8,2.537-3.462,6.163-8.423V73.193h9.359V34.619Z" transform="translate(0 -9.358)"/><path class="b" d="M226.944,34.619,210.528,57.394,194.113,34.619h-7.284V73.193h9.3V53.511l.349.483,8.331,11.331,5.794,7.869,5.7-7.8,2.537-3.462L225,53.511V73.193h9.359V34.619Z" transform="translate(-58.439 -9.358)"/><g transform="translate(89.216 68.637)"><path class="c" d="M127.1,106.519a5.344,5.344,0,0,1,1.581-.19,7.992,7.992,0,0,1,.855.048,7.684,7.684,0,0,1,.829.133,3.593,3.593,0,0,1,.686.219.949.949,0,0,1,.4.285q-.208.876-.518,1.836t-.687,1.951q-.376.99-.777,2t-.79,1.959q-.259.685-.467,1.237t-.441,1.065a11.359,11.359,0,0,1-.544,1.047q-.31.532-.725,1.179a.913.913,0,0,1-.337.209,3.25,3.25,0,0,1-.532.162c-.2.044-.406.083-.621.114a4.149,4.149,0,0,1-.583.047,1.588,1.588,0,0,1-.467-.057c-.121-.038-.181-.1-.181-.19a25.53,25.53,0,0,1,.92-2.73q.505-1.246,1-2.454t.959-2.474a24.2,24.2,0,0,0,.829-2.806,1.416,1.416,0,0,0,.039-.2,1.626,1.626,0,0,0,.014-.2,2.629,2.629,0,0,0-.234-1.065,2.448,2.448,0,0,1-.233-.971.238.238,0,0,1,.013-.076A.229.229,0,0,0,127.1,106.519Zm12.334-2a6.464,6.464,0,0,1,1.347-.1q.491,0,1.036.039t1,.105a3.335,3.335,0,0,1,.738.18c.19.076.285.172.285.286a.248.248,0,0,1-.052.133q-1.632.951-3.29,1.826t-3.252,1.788q-1.594.912-3.07,1.959a20.17,20.17,0,0,0-2.746,2.34,5.187,5.187,0,0,0,.971,1.579,15.8,15.8,0,0,0,1.529,1.541q.843.742,1.724,1.389t1.58,1.141h-.026q1.062.723,2.254,1.465a24.353,24.353,0,0,0,2.435,1.332,17.292,17.292,0,0,0,2.5.961,8.713,8.713,0,0,0,2.474.37,9.677,9.677,0,0,0,2.061-.228q1.049-.228,2.034-.513t1.853-.514a6,6,0,0,1,1.489-.229,3.143,3.143,0,0,1,.466.029c.121.019.181.054.181.1,0,.089-.173.2-.518.333s-.751.267-1.218.4-.941.26-1.425.38-.864.212-1.14.276h.026a24.906,24.906,0,0,1-2.5.495,17.459,17.459,0,0,1-2.449.171,14.555,14.555,0,0,1-2.928-.314,19.63,19.63,0,0,1-3.03-.885,23.236,23.236,0,0,1-2.928-1.351,20.24,20.24,0,0,1-2.617-1.693l-.544-.419q-1.088-.836-2.086-1.636a11.917,11.917,0,0,1-1.671-1.6h.052q-.077-.076-.246-.248t-.35-.38a2.716,2.716,0,0,1-.311-.437.83.83,0,0,1-.129-.4.255.255,0,0,1,.025-.134h-.025a3.27,3.27,0,0,1,.492-.827,9.3,9.3,0,0,1,.777-.866q.439-.437.933-.866t.959-.808q1.347-1.142,2.876-2.321t3.291-2.377a4.271,4.271,0,0,0,.648-.552A2.269,2.269,0,0,0,139.437,104.522Z" transform="translate(-123.786 -104.426)"/><path class="c" d="M172.42,125.346a2.053,2.053,0,0,1-.428.322q-.35.224-.894.546-.233.149-.79.471a11.815,11.815,0,0,1-1.321.645,13.69,13.69,0,0,1-1.658.57,6.832,6.832,0,0,1-1.827.248,10.183,10.183,0,0,1-1.348-.075,2.49,2.49,0,0,1-.894-.273,1.432,1.432,0,0,1-.544-.533,3.971,3.971,0,0,1-.35-.856,8.8,8.8,0,0,1-1.645.955,5.359,5.359,0,0,1-2.164.384,3.806,3.806,0,0,1-1.334-.186,1.484,1.484,0,0,1-.7-.5,1.441,1.441,0,0,1-.259-.707c-.025-.265-.039-.537-.039-.818s.009-.5.026-.67a.694.694,0,0,1,.143-.385.549.549,0,0,1,.337-.173,4.063,4.063,0,0,1,.634-.037H158.4a4.625,4.625,0,0,1,.739.05.658.658,0,0,1,.4.174,1.11,1.11,0,0,1,.247.57,5.766,5.766,0,0,1,.078.768q.012.4.039.72a.877.877,0,0,0,.1.421,2.941,2.941,0,0,0,1.7-1,2.319,2.319,0,0,0,.453-1.327c0-.281.173-.463.518-.546a6.421,6.421,0,0,1,1.425-.124h.467a3.114,3.114,0,0,1,.492.037,1.646,1.646,0,0,1,.4.112c.111.049.168.116.168.2q0,.348-.026.695t-.025.694a5.327,5.327,0,0,0,.117,1.116,1.489,1.489,0,0,0,.505.867,4.778,4.778,0,0,0,1.335-.446q.711-.347,1.373-.719t1.153-.707q.491-.335.7-.459a1.164,1.164,0,0,1,.518-.211q.207-.012.414-.012a1.564,1.564,0,0,1,.622.075C172.4,125.272,172.437,125.313,172.42,125.346Z" transform="translate(-136.069 -111.83)"/><path class="c" d="M188.621,125.485q.1.3.207.583c.069.191.13.352.181.483a3.962,3.962,0,0,0,1.4-1.388l-.208-.1a4.281,4.281,0,0,1-.492-.285,4.978,4.978,0,0,1-.544-.409,3.355,3.355,0,0,1-.454-.471.777.777,0,0,1-.194-.472.6.6,0,0,1,.233-.471,1.808,1.808,0,0,1,.6-.322,4.352,4.352,0,0,1,.79-.186,5.5,5.5,0,0,1,.791-.062,2.611,2.611,0,0,1,1.541.446,1.324,1.324,0,0,1,.635,1.116.984.984,0,0,1-.065.26,2.925,2.925,0,0,1-.168.385q.362.148.622.26c.172.075.332.14.479.2a2.193,2.193,0,0,0,.428.124,2.812,2.812,0,0,0,.493.038,2.439,2.439,0,0,0,.661-.1,5.894,5.894,0,0,0,.946-.4h.647q.415,0,.674.013c.173.008.259.029.259.062,0,.149-.164.281-.493.4a8.873,8.873,0,0,1-1.165.31,12.393,12.393,0,0,1-1.361.2q-.686.063-1.075.063a6.69,6.69,0,0,1-1.049-.063c-.25-.04-.557-.094-.92-.16a7.572,7.572,0,0,1-1.555,1.079,4.076,4.076,0,0,1-1.943.483,4.58,4.58,0,0,1-1.477-.173,2.137,2.137,0,0,1-.8-.521,3.1,3.1,0,0,1-.984.645,3.955,3.955,0,0,1-1.581.273,3.432,3.432,0,0,1-1.542-.285,2.326,2.326,0,0,1-.867-.731,3.1,3.1,0,0,1-.454-.98q-.143-.533-.272-1.054l-.207-.769q0-.173.414-.235a7.69,7.69,0,0,1,1.088-.062,9.014,9.014,0,0,1,1.063.062,6.278,6.278,0,0,1,.881.161q.051.769.168,1.488a5.936,5.936,0,0,0,.376,1.34,3.3,3.3,0,0,0,.35-.546,3.235,3.235,0,0,1,.428-.62,2.088,2.088,0,0,1,.661-.5,2.311,2.311,0,0,1,1.024-.2,3.615,3.615,0,0,1,.894.086,1.36,1.36,0,0,1,.506.236.981.981,0,0,1,.272.347C188.512,125.2,188.568,125.337,188.621,125.485Zm2.565-1.711a2.031,2.031,0,0,0-.014-.236c-.008-.075-.082-.17-.22-.285l-.337-.174c-.052,0-.078.017-.078.05s.03.078.091.137a2.725,2.725,0,0,1,.194.211Z" transform="translate(-145.194 -111.226)"/><path class="c" d="M215.158,124.336a.884.884,0,0,1-.518.31,3.3,3.3,0,0,1-.907.112,5.043,5.043,0,0,1-1.192-.112,1.991,1.991,0,0,1-.647-.26.664.664,0,0,1-.259-.3.754.754,0,0,1-.052-.223.133.133,0,0,1,.1-.149,1.147,1.147,0,0,0-.816.557q-.35.509-.79,1.3a2.257,2.257,0,0,0-.3.521,1.52,1.52,0,0,0-.169.546c0,.05.017.074.052.074a2.357,2.357,0,0,0,1.01-.186,8.094,8.094,0,0,0,.751-.409,5.654,5.654,0,0,1,.816-.409,3.4,3.4,0,0,1,1.256-.186,1.269,1.269,0,0,1,.739.223,3.025,3.025,0,0,1,.57.508,6.719,6.719,0,0,1,.428.546,1.512,1.512,0,0,0,.285.335,7.364,7.364,0,0,0,1.645-.347,9.809,9.809,0,0,0,1.308-.557q.6-.31,1.1-.608a5.407,5.407,0,0,1,1.023-.471h.285a2.659,2.659,0,0,1,.467.025.607.607,0,0,1,.208.1v.075a11.5,11.5,0,0,1-1.063.843,7,7,0,0,1-1.373.744,9.6,9.6,0,0,1-1.723.521,9.989,9.989,0,0,1-2.06.2,2.556,2.556,0,0,1-1.063-.211,7.337,7.337,0,0,1-.829-.434h.025l-.441-.211c-.121-.058-.181-.1-.181-.136a.022.022,0,0,1,.025-.025,3.381,3.381,0,0,1-.427.186q-.35.136-.92.3a12.187,12.187,0,0,1-1.322.285,10.043,10.043,0,0,1-1.632.124,5.242,5.242,0,0,1-1.541-.211q-.687-.21-.687-.781a1.8,1.8,0,0,1,.583-1.3,5.3,5.3,0,0,1,1.451-1,9.124,9.124,0,0,1,1.84-.657,7.486,7.486,0,0,1,1.749-.235c.173,0,.414.009.725.024a8.585,8.585,0,0,1,.972.112,3.736,3.736,0,0,1,.933.285,1.1,1.1,0,0,1,.583.57Z" transform="translate(-155.046 -111.589)"/><path class="c" d="M229.979,119.835q.052-.322.622-.384a11.457,11.457,0,0,1,1.243-.062q.518,0,1.011.037c.327.025.5.1.518.211a.531.531,0,0,1-.091.273c-.043.05-.09.107-.142.173a.835.835,0,0,0-.129.26,1.779,1.779,0,0,0-.052.509v.88q0,.533.039,1.029a5.168,5.168,0,0,0,.129.855c.06.24.152.36.272.36a5.246,5.246,0,0,0,2.008-.347,10.064,10.064,0,0,0,1.516-.769q.674-.421,1.256-.769a2.373,2.373,0,0,1,1.231-.347c.19,0,.371.009.544.025s.259.042.259.074a.083.083,0,0,1-.039.075.553.553,0,0,0-.09.075q-.675.52-1.322.954a7.586,7.586,0,0,1-1.425.744,9.509,9.509,0,0,1-1.762.5,12.871,12.871,0,0,1-2.358.186,5.025,5.025,0,0,1-2.617-.6,2.234,2.234,0,0,1-.985-2.083,5.072,5.072,0,0,1,.078-.867A5.487,5.487,0,0,1,229.979,119.835Zm1.4-5.158a1.491,1.491,0,0,1,1.062-.273,2.5,2.5,0,0,1,.687.1,5.141,5.141,0,0,1,.661.236,2.8,2.8,0,0,1,.531.3.954.954,0,0,1,.272.26.5.5,0,0,1,.065.309,2.327,2.327,0,0,1-.065.4,2.75,2.75,0,0,1-.129.4,1.246,1.246,0,0,1-.155.285c0,.033-.057.066-.169.1a2.264,2.264,0,0,1-.388.074q-.22.025-.415.037c-.129.009-.219.012-.272.012a1.687,1.687,0,0,1-1.023-.248,1.235,1.235,0,0,1-.441-.6,2.283,2.283,0,0,1-.117-.731A1.874,1.874,0,0,0,231.378,114.677Z" transform="translate(-163.856 -108.204)"/><path class="c" d="M244.659,119.2a2.518,2.518,0,0,1-.79-.186c-.078-.057-.116-.1-.116-.135,0-.05.052-.1.155-.162a2.154,2.154,0,0,1,.388-.162,4.1,4.1,0,0,1,.518-.124c.19-.033.363-.058.518-.075a7.891,7.891,0,0,0,.285-.954,4.109,4.109,0,0,0,.1-.905,2.335,2.335,0,0,0-.026-.446.761.761,0,0,0-.052-.149,2.947,2.947,0,0,1,.712-.3,3.494,3.494,0,0,1,.972-.124,4.948,4.948,0,0,1,.557.037q.324.037.622.1a2.3,2.3,0,0,1,.531.173.5.5,0,0,1,.285.26,3.839,3.839,0,0,1-.155,1.128,7.435,7.435,0,0,1-.389,1q.907-.1,1.827-.185t1.749-.087h.272q.117,0,.3-.013t.518-.062q.337-.049.959-.124h.441c.172,0,.337,0,.492.012a3.852,3.852,0,0,1,.388.038c.1.016.155.041.155.074,0,.066-.138.137-.414.211s-.634.149-1.075.222-.938.145-1.489.211l-1.658.2q-.83.1-1.581.161t-1.243.112a9.419,9.419,0,0,0-.493,1.438,7.756,7.756,0,0,0-.207,1.935,6.473,6.473,0,0,0,.116,1.289q.117.57.454.57a5.246,5.246,0,0,0,1.412-.224,16.565,16.565,0,0,0,1.607-.546q.816-.322,1.568-.707t1.269-.682a2.354,2.354,0,0,1,.492-.149,3.04,3.04,0,0,1,.674-.1,1.634,1.634,0,0,1,.427.037.321.321,0,0,1,.155.087.1.1,0,0,1,.013.111.284.284,0,0,0-.026.087,13.777,13.777,0,0,1-3.99,1.934,15.083,15.083,0,0,1-4.4.67,4.684,4.684,0,0,1-1.516-.211,2.533,2.533,0,0,1-.972-.57,2.065,2.065,0,0,1-.518-.831,3.24,3.24,0,0,1-.155-1.017,4.815,4.815,0,0,1,.22-1.413q.221-.72.506-1.463h-.389Z" transform="translate(-169.208 -108.612)"/></g><g transform="translate(87.955 25.296)"><path class="d" d="M136.517,73.175a28.868,28.868,0,0,1-7.077-.881,34.952,34.952,0,0,1-6.692-2.423.406.406,0,0,1-.165-.055,2.279,2.279,0,0,0-.276-.111,1.331,1.331,0,0,1-.413-.358.589.589,0,0,1-.137-.3q0-.055.606-1.185t1.432-2.561q.77-1.266,1.432-2.451t1.1-1.9l.908.414a5.915,5.915,0,0,1,.578.3,26.189,26.189,0,0,0,4.847,1.872,19.146,19.146,0,0,0,5.067.662h.743a5.185,5.185,0,0,0,.744-.055,4.7,4.7,0,0,0,1.487-.22,3.238,3.238,0,0,0,1.129-.772,2.094,2.094,0,0,0,.469-1.487,1.339,1.339,0,0,0-.551-1.129,6.286,6.286,0,0,0-1.157-.688q-.386-.165-.716-.275a10.448,10.448,0,0,0-1.9-.578q-.965-.192-1.955-.413Q134.7,58.3,133.432,58t-2.479-.633a23.44,23.44,0,0,1-2.368-.854,15.866,15.866,0,0,1-2.093-1.074,9.555,9.555,0,0,1-3.25-3.332,10.776,10.776,0,0,1-1.212-5.481,11.01,11.01,0,0,1,1.047-4.682,10.8,10.8,0,0,1,2.671-3.607,13.3,13.3,0,0,1,3.607-2.231,16.825,16.825,0,0,1,4.131-1.129,30.819,30.819,0,0,1,4.3-.3,28.65,28.65,0,0,1,7.022.882,24.1,24.1,0,0,1,6.858,2.974q-1.269,2.148-2.369,4.1t-2.368,4.1a36.915,36.915,0,0,0-5.26-2.231,16.913,16.913,0,0,0-5.26-.8c-.368,0-.781.01-1.239.027a4.024,4.024,0,0,0-1.267.249,2.613,2.613,0,0,0-.992.661,1.786,1.786,0,0,0-.413,1.267,1.776,1.776,0,0,0,1.24,1.68,16.631,16.631,0,0,0,2.01.634q1.211.33,2.671.633t3,.744q1.543.386,3.14.908a16.391,16.391,0,0,1,3,1.322,12.95,12.95,0,0,1,2.533,1.872,7.971,7.971,0,0,1,1.79,2.561,9.132,9.132,0,0,1,.688,2.369,16.456,16.456,0,0,1,.193,2.479,10.347,10.347,0,0,1-5.26,9.639,15.774,15.774,0,0,1-5.233,1.9A32.28,32.28,0,0,1,136.517,73.175Z" transform="translate(-121.756 -34.676)"/></g></g></g></svg>